<svg t="1690389532337" class="icon" viewBox="0 0 1024 1024" version="1.1" xmlns="http://www.w3.org/2000/svg" p-id="1506" width="32" height="32"><path d="M662.997333 138.88c-63.786667 2.773333-116.992 31.573333-149.589333 70.314667L512 210.944l-1.450667-1.792c-34.346667-40.746667-91.434667-70.485333-159.701333-70.485333-144 0-272.042667 120.362667-252.842667 301.994666l1.194667 9.386667c19.029333 131.754667 145.877333 269.952 378.069333 418.56l10.496 6.698667a32.810667 32.810667 0 0 0 20.565334 9.941333h7.04a32.469333 32.469333 0 0 0 17.066666-6.528l3.712-3.413333 10.581334-6.698667 32.426666-21.162667c216.917333-144.128 333.226667-278.485333 346.837334-406.784 19.2-181.632-108.842667-301.994667-252.842667-301.994666l-10.154667 0.213333z m10.154667 63.786667c108.245333 0 204.117333 90.112 189.184 231.253333l-1.024 8.106667c-16.298667 108.032-131.84 233.6-349.312 372.778666l-16.469333-10.581333c-212.053333-138.325333-322.56-263.082667-333.866667-370.304-14.933333-141.141333 80.938667-231.253333 189.184-231.253333 68.053333 0 117.930667 40.704 128.554667 80.042666l1.152 5.12c6.144 33.28 51.925333 34.858667 61.781333 4.693334l1.194667-4.778667c7.381333-40.704 58.624-85.077333 129.621333-85.077333z" fill="#d81e06" p-id="1507"></path></svg>